<svg xmlns:xodm="http://www.corel.com/coreldraw/odm/2003" xmlns="http://www.w3.org/2000/svg" xmlns:xlink="http://www.w3.org/1999/xlink" id="Layer_1" x="0px" y="0px" viewBox="0 0 443 332" style="enable-background:new 0 0 443 332;" xml:space="preserve"><style type="text/css">	.st0{fill-rule:evenodd;clip-rule:evenodd;}</style><g id="__x0023_Layer_x0020_1">	<path class="st0" d="M147.4,20.5c-4.5,1.5-13.8,2.3-19.3,3.5C63,39,19.7,92.5,6.1,158c-2.4,11.6-5.6,28.6-5.6,40.6  c0,13.3-1.2,34.5,0.3,46.8c14.3,8,40.1,15.8,59.4,18c6.2,0.7,4.4,1.3,10.5,8.8c8,9.9,10,11,18.6,20.1c2.6,2.7,7.1,6.1,10.6,8.8  c25.5,19.8,77.2,40.7,118.4,25.4c18.6-6.9,33.7-19.2,48.1-29.3c14.5-10.2,30.4-20.8,48.9-28.5c15.4-6.4,9.2-5.5,28,0.7  c10,3.3,19.4,6.5,30.1,8.6c11.8,2.4,22.4,2.8,34.6,4c14.1,1.4,22.7-1.1,35.1-3.7c0-8.8,0-6.9-4.9-11.2  c-24.5-22.1-35.2-28.1-63.4-47.9c-3.4-2.4-6.1-4.2-9.6-6.3c-4.4-2.6-2.9-2.7-4.1-11.8c-11.6-88.9-67.8-170.7-170.3-180.2  c-2.5-11.5-8.4-20.8-21.5-20.6C156.1,0.3,149.7,8.9,147.4,20.5L147.4,20.5z M335,261.5c0.1,0.1,0.4,0.1,0.4,0.3  c0.1,0.2,0.3,0.2,0.4,0.3c1.5,0.8,0,0.1,1.4,0.7l8.8,2.9c3.8,1.2,7.6,2.5,11.5,3.7c8.2,2.5,16,4.4,24.7,5.7c12.3,1.9,44.7,5,55-0.3  c-21.3-11.9-51-21.4-75.7-19.3C354.7,256.2,340.2,258.7,335,261.5L335,261.5z M152.5,20.9c10.4,5.6,22.9,3.7,33.3,0.7  C182.4-3.3,152.9,2.6,152.5,20.9z M98.5,252.4c-0.7-9.3-3.6-20.9-4.7-31c-1.3-11.4-2-22.9-2.1-34.6c-0.1-22.3,2.3-45,7.6-65.6  c6.9-27.1,23.8-65.2,42.9-85c2.2-2.3,7.4-7.8,8.8-10c-25.5-0.4-65.6,17.1-84.6,35.2c-12.5,11.9-17.2,16-27.9,31.5  c-7.5,10.8-15.4,25.6-20.2,40C8.8,161.8,2.3,205.4,5.2,238.1c0.5,5.2,0.3,3.9,7.6,7c16.7,7.2,42.2,15.4,60.1,12.2  C81.6,255.8,90,254.1,98.5,252.4L98.5,252.4z M71.1,263.6c1.9,3.8,7.3,9.3,10,12.7l12,12.2c10,10.5,33.8,24.1,50,29.5  c42.1,14,66.6,11,99.1-10.5c29.5-19.6,43.7-33.5,79.2-47.3c28.7-11.1,50-13.5,80.3-5.8c9.1,2.3,15.5,5.8,23.1,8.2l-32.8-24.9  c-6.6-4.9-28.9-20.3-35.4-23.4c-29.2-13.9-69.7-7.4-100.5,0c-15.5,3.7-29.3,9.3-43.9,14.1c-14.8,4.9-29.9,9.2-45.5,13.3  c-15.8,4.1-31.2,7.9-47.2,11.6C113.2,254.8,72.7,262.6,71.1,263.6L71.1,263.6z M323.5,201.2c14.1,0.9,20.6,3.7,32.7,6.7  c-3.8-47.7-23.7-90.4-46.7-118.5c-2.9-3.5-6.2-7.9-9.2-10.9c-1.1-1.1-1.4-1.1-2.6-2.2l-8.2-7.7c-20.4-18-55-37.4-84.1-40  c0.6,0.4,0.1,0.2,1.5,0.9c0.6,0.3,0.8,0.4,1.5,0.7l21.5,10.3c48.6,26.4,77.7,74.6,88.9,128.9C320.8,178.8,321.3,192.6,323.5,201.2  L323.5,201.2z M103.7,251.1c6.8-0.4,20-4.2,27-5.9c24.5-5.7,55.1-13.7,78.2-21.4c35.8-12,67.4-23.8,109.9-22.9  c-3-46.8-19.8-87.3-42.2-115.2c-17.9-22.4-39.9-38.7-67.1-50.4c-4.6-2-9.3-3.6-14.2-5.2c-8-2.6-7.5-3.2-15.7-1.5  c-18.2,3.7-19.2-4.3-24.5,1.7c-5.5,6.3-5.7,5.3-13.8,15.2c-2.9,3.5-5.7,7.6-8.4,11.6C109.4,92.5,98.1,134.5,97,178.6  C96.3,205.5,99.8,225.7,103.7,251.1L103.7,251.1z"></path></g></svg>