<svg xmlns="http://www.w3.org/2000/svg" data-name="Layer 1" viewBox="0 0 512 512"><path d="M370.5 211.313a7.5 7.5 0 0 0-7.5 7.5v.101a7.5 7.5 0 1 0 15 0v-.1a7.5 7.5 0 0 0-7.5-7.5Zm0 30.273a7.5 7.5 0 0 0-7.5 7.5v.1a7.5 7.5 0 0 0 15 0v-.1a7.5 7.5 0 0 0-7.5-7.5Zm0 30.272a7.5 7.5 0 0 0-7.5 7.5v.101a7.5 7.5 0 0 0 15 0v-.1a7.5 7.5 0 0 0-7.5-7.5Zm0-121.09a7.5 7.5 0 0 0-7.5 7.5v.1a7.5 7.5 0 0 0 15 0v-.1a7.5 7.5 0 0 0-7.5-7.5Zm0-60.546a7.5 7.5 0 0 0-7.5 7.5v.1a7.5 7.5 0 0 0 15 0v-.1a7.5 7.5 0 0 0-7.5-7.5Zm0 30.273a7.5 7.5 0 0 0-7.5 7.5v.1a7.5 7.5 0 0 0 15 0v-.1a7.5 7.5 0 0 0-7.5-7.5Zm0-45.47a7.512 7.512 0 0 0 0-15.025h-.05a7.513 7.513 0 0 0 .05 15.025Zm0 332.975a7.5 7.5 0 0 0 7.5-7.5v-.05a7.512 7.512 0 1 0-7.5 7.55Zm0-105.868a7.5 7.5 0 0 0-7.5 7.5v.1a7.5 7.5 0 1 0 15 0v-.1a7.5 7.5 0 0 0-7.5-7.5Zm0 60.545a7.5 7.5 0 0 0-7.5 7.5v.1a7.5 7.5 0 0 0 15 0v-.1a7.5 7.5 0 0 0-7.5-7.5ZM313.201 393a7.5 7.5 0 0 0 0 15h.096a7.459 7.459 0 0 0 7.452-7.5 7.54 7.54 0 0 0-7.548-7.5Zm-57.248 0a7.5 7.5 0 1 0 0 15h.095a7.459 7.459 0 0 0 7.452-7.5 7.54 7.54 0 0 0-7.547-7.5Zm28.624 0a7.5 7.5 0 0 0 0 15h.095a7.459 7.459 0 0 0 7.452-7.5 7.54 7.54 0 0 0-7.547-7.5Zm85.923-60.596a7.5 7.5 0 0 0-7.5 7.5v.1a7.5 7.5 0 0 0 15 0v-.1a7.5 7.5 0 0 0-7.5-7.5ZM198.704 393a7.5 7.5 0 0 0 0 15h.095a7.46 7.46 0 0 0 7.452-7.5 7.54 7.54 0 0 0-7.547-7.5Zm28.624 0a7.5 7.5 0 0 0 0 15h.095a7.46 7.46 0 0 0 7.453-7.5 7.54 7.54 0 0 0-7.548-7.5Zm114.498 0a7.5 7.5 0 0 0 0 15h.095a7.459 7.459 0 0 0 7.452-7.5 7.54 7.54 0 0 0-7.547-7.5Zm.095-318a7.5 7.5 0 0 0 0-15h-.096a7.46 7.46 0 0 0-7.452 7.5 7.54 7.54 0 0 0 7.548 7.5ZM183.5 272.15h145a7.5 7.5 0 0 0 0-15h-145a7.5 7.5 0 0 0 0 15Zm145 15h-145a7.5 7.5 0 0 0 0 15h145a7.5 7.5 0 0 0 0-15Zm42-106.11a7.5 7.5 0 0 0-7.5 7.5v.101a7.5 7.5 0 1 0 15 0v-.1a7.5 7.5 0 0 0-7.5-7.5Zm-229-15.172a7.5 7.5 0 0 0 7.5-7.5v-.1a7.5 7.5 0 0 0-15 0v.1a7.5 7.5 0 0 0 7.5 7.5Zm0 151.363a7.5 7.5 0 0 0 7.5-7.5v-.1a7.5 7.5 0 0 0-15 0v.1a7.5 7.5 0 0 0 7.5 7.5Zm0-30.272a7.5 7.5 0 0 0 7.5-7.5v-.1a7.5 7.5 0 0 0-15 0v.1a7.5 7.5 0 0 0 7.5 7.5Zm0-90.818a7.5 7.5 0 0 0 7.5-7.5v-.101a7.5 7.5 0 1 0-15 0v.1a7.5 7.5 0 0 0 7.5 7.5Zm0 30.273a7.5 7.5 0 0 0 7.5-7.5v-.101a7.5 7.5 0 0 0-15 0v.1a7.5 7.5 0 0 0 7.5 7.5Zm0 30.272a7.5 7.5 0 0 0 7.5-7.5v-.1a7.5 7.5 0 0 0-15 0v.1a7.5 7.5 0 0 0 7.5 7.5Zm0 90.819a7.5 7.5 0 0 0 7.5-7.5v-.1a7.5 7.5 0 0 0-15 0v.1a7.5 7.5 0 0 0 7.5 7.5ZM459 497h-49.253l-29-29H409.5a13.515 13.515 0 0 0 13.5-13.5v-18a13.515 13.515 0 0 0-13.5-13.5H408V45h.5A14.517 14.517 0 0 0 423 30.5v-16A14.517 14.517 0 0 0 408.5 0h-305A14.517 14.517 0 0 0 89 14.5v16A14.517 14.517 0 0 0 103.5 45h.5v378h-1.5A13.515 13.515 0 0 0 89 436.5v18a13.515 13.515 0 0 0 13.5 13.5h28.753l-29 29H53a7.5 7.5 0 0 0 0 15h406a7.5 7.5 0 0 0 0-15ZM104 15h304v15H104Zm289 30v378H119V45ZM104 453v-15h304v15Zm19.467 44 29-29h20.346l-29 29Zm41.56 0 29-29h123.946l29 29Zm203.16 0-29-29h20.345l29 29ZM141.5 408h.05a7.525 7.525 0 1 0-.05 0Zm0-30.223a7.5 7.5 0 0 0 7.5-7.5v-.1a7.5 7.5 0 0 0-15 0v.1a7.5 7.5 0 0 0 7.5 7.5ZM170.174 75a7.5 7.5 0 0 0 0-15h-.095a7.46 7.46 0 0 0-7.453 7.5 7.541 7.541 0 0 0 7.548 7.5Zm57.249 0a7.5 7.5 0 1 0 0-15h-.095a7.46 7.46 0 0 0-7.453 7.5 7.541 7.541 0 0 0 7.548 7.5Zm-1.51 96.424-49.53 46.77a7.5 7.5 0 1 0 10.299 10.907l44.357-41.886 45.955 43.8a7.5 7.5 0 0 0 10.35-10.859l-14.89-14.19 11.366-10.732 37.537 35.782a7.5 7.5 0 1 0 10.35-10.857l-42.687-40.691a7.5 7.5 0 0 0-10.323-.025l-17.116 16.16-25.344-24.155a7.5 7.5 0 0 0-10.324-.024ZM141.5 135.595a7.5 7.5 0 0 0 7.5-7.5v-.1a7.5 7.5 0 0 0-15 0v.1a7.5 7.5 0 0 0 7.5 7.5ZM198.799 75a7.5 7.5 0 0 0 0-15h-.095a7.46 7.46 0 0 0-7.453 7.5A7.54 7.54 0 0 0 198.8 75Zm85.873 0a7.5 7.5 0 0 0 0-15h-.096a7.46 7.46 0 0 0-7.452 7.5 7.54 7.54 0 0 0 7.548 7.5Zm-28.625 0a7.5 7.5 0 0 0 0-15h-.095a7.46 7.46 0 0 0-7.452 7.5 7.54 7.54 0 0 0 7.547 7.5Zm-114.547.025a7.539 7.539 0 0 0 7.525-7.525 7.512 7.512 0 0 0-15.025 0v.05a7.479 7.479 0 0 0 7.5 7.475Zm0 30.297a7.5 7.5 0 0 0 7.5-7.5v-.1a7.5 7.5 0 1 0-15 0v.1a7.5 7.5 0 0 0 7.5 7.5ZM313.296 75a7.5 7.5 0 0 0 0-15h-.095a7.46 7.46 0 0 0-7.453 7.5 7.54 7.54 0 0 0 7.548 7.5ZM170.08 408h.095a7.46 7.46 0 0 0 7.452-7.5 7.524 7.524 0 1 0-7.547 7.5Z"></path></svg>