<svg xmlns="http://www.w3.org/2000/svg" width="64" height="64" viewBox="0 0 64 64"><path d="M61.706,13.361L50.64,2.294c-0.392-0.392-1.027-0.392-1.419,0l-9.505,9.505c-2.007-2.073-3.229-3.123-4.751-3.123   c-1.897,0-3.483,1.643-6.958,5.244C26.959,15.005,6.944,35.065,6.944,35.065c-2.811,2.811-4.545,6.373-4.884,10.031   c-0.344,3.728,0.794,7.109,3.207,9.522l4.115,4.113C11.489,60.84,14.417,62,17.629,62c4.043,0,8.165-1.802,11.306-4.943   c0,0,20.06-20.015,21.145-21.063c3.605-3.479,5.25-5.067,5.244-6.968c-0.005-1.519-1.054-2.738-3.123-4.741l9.505-9.505   C62.098,14.388,62.098,13.752,61.706,13.361z M53.317,29.033c0.003,1.045-1.741,2.729-4.631,5.518   c-1.092,1.054-21.169,21.087-21.169,21.087c-2.769,2.768-6.372,4.355-9.887,4.355c-2.676,0-5.101-0.952-6.828-2.68L6.687,53.2   c-1.983-1.983-2.916-4.796-2.627-7.919c0.295-3.192,1.824-6.316,4.304-8.797c0,0,20.034-20.078,21.087-21.17   c2.787-2.888,4.469-4.631,5.514-4.631c0.829,0,1.973,1.112,3.764,2.983c0.05,0.12,11.485,11.555,11.605,11.605   C52.204,27.061,53.315,28.204,53.317,29.033z M50.752,22.896c-0.507-0.483-9.169-9.146-9.647-9.647l8.826-8.827l9.648,9.648   L50.752,22.896z"></path><path d="M48.431 9.408l-1.581 1.581c-.392.392-.392 1.027 0 1.419.196.196.453.294.709.294.256 0 .513-.098.709-.294l1.581-1.581c.392-.392.392-1.027 0-1.419C49.458 9.016 48.822 9.016 48.431 9.408zM52.302 17.445c.257 0 .513-.098.709-.294l1.581-1.581c.392-.392.392-1.027 0-1.419-.392-.392-1.027-.392-1.419 0l-1.581 1.581c-.392.392-.392 1.027 0 1.419C51.788 17.347 52.045 17.445 52.302 17.445zM14.359 45.284c-1.164 0-2.258.452-3.083 1.276-1.696 1.702-1.695 4.467.001 6.163C12.101 53.547 13.195 54 14.359 54c1.165 0 2.258-.453 3.08-1.276 1.698-1.696 1.699-4.462 0-6.164C16.617 45.736 15.523 45.284 14.359 45.284zM16.02 51.305c-.886.888-2.436.888-3.323 0-.915-.915-.915-2.407 0-3.326.444-.443 1.034-.688 1.663-.688.627 0 1.218.244 1.66.687C16.936 48.897 16.937 50.39 16.02 51.305z"></path></svg>